<?xml version="1.0" encoding="utf-8"?>
<!-- Generator: Adobe Illustrator 26.5.0, SVG Export Plug-In . SVG Version: 6.00 Build 0)  -->
<svg version="1.1" id="Layer_1" xmlns="http://www.w3.org/2000/svg" xmlns:xlink="http://www.w3.org/1999/xlink" x="0px" y="0px"
	 viewBox="0 0 267.5 266.7" style="enable-background:new 0 0 267.5 266.7;" xml:space="preserve">
	 <title>ePay Icon</title>
<style type="text/css">
	.st0{clip-path:url(#SVGID_00000160148508727020643560000014688555848693621439_);}
	.st1{fill:#FFFFFF;}
	.st2{clip-path:url(#SVGID_00000012468656147414406840000015827763386277570970_);}
</style>
<g>
	<defs>
		<path id="SVGID_1_" d="M6.4,133.8C6.9,204,64.3,260.5,134.6,260c69.4-0.5,125.5-56.6,126.2-125.9l-17.3,16.4
			c-1.4,53.4-45.8,95.7-99.2,94.3S48.7,199,50,145.6c1.4-53.4,45.8-95.7,99.2-94.3c14.1,0.4,28,3.8,40.7,10.1l25.9-24.7
			C162.2-8.7,82-2.1,36.6,51.5C17.1,74.5,6.4,103.6,6.4,133.8"/>
	</defs>
	<use xlink:href="#SVGID_1_"  style="overflow:visible;fill:#FFFFFF;"/>
	<clipPath id="SVGID_00000181049999879939643060000009909948492457956766_">
		<use xlink:href="#SVGID_1_"  style="overflow:visible;"/>
	</clipPath>
	<g style="clip-path:url(#SVGID_00000181049999879939643060000009909948492457956766_);">
		<rect x="6.4" y="6.6" class="st1" width="254.4" height="254.4"/>
	</g>
</g>
<g>
	<defs>
		<path id="SVGID_00000066502817181293165190000009099723970690902941_" d="M125.7,70.5l30,28.5c33,9.5,52.1,43.9,42.6,76.9
			s-43.9,52.1-76.9,42.6c-24.4-7-42.1-28.1-44.7-53.4l-10.6-10.1c3.6,44.5,42.6,77.7,87.1,74.1c44.5-3.6,77.7-42.6,74.1-87.1
			c-3.6-44.5-42.6-77.7-87.1-74.1C135.2,68.4,130.4,69.2,125.7,70.5"/>
	</defs>
	<use xlink:href="#SVGID_00000066502817181293165190000009099723970690902941_"  style="overflow:visible;fill:#FFFFFF;"/>
	<clipPath id="SVGID_00000083086387364126332380000006363830024601586865_">
		<use xlink:href="#SVGID_00000066502817181293165190000009099723970690902941_"  style="overflow:visible;"/>
	</clipPath>
	<g style="clip-path:url(#SVGID_00000083086387364126332380000006363830024601586865_);">
		
			<rect x="32.5" y="34.3" transform="matrix(0.7071 -0.7071 0.7071 0.7071 -62.0879 147.3487)" class="st1" width="228.6" height="228.7"/>
	</g>
</g>
<path class="st1" d="M138.7,109.2c-27.6,0.2-49.7,22.7-49.5,50.3s22.7,49.7,50.3,49.5c27.4-0.2,49.5-22.5,49.5-49.9
	C188.9,131.4,166.4,109,138.7,109.2C138.7,109.2,138.7,109.2,138.7,109.2 M176,167.2H128l-0.4-0.6c-1.4-2.5-1.9-5.4-1.4-8.3
	c1.3-6.9,7.9-11.5,14.8-10.3c3.5,0.6,6.5,2.7,8.4,5.6h10.4c-2.8-11.7-14.5-18.9-26.2-16.1s-18.9,14.5-16.1,26.2
	c1.9,8,8.2,14.2,16.1,16.1c4.4,1.3,6.9,5.8,5.6,10.2c-1.2,4.1-5.3,6.6-9.5,5.8c-20.3-5-32.7-25.5-27.7-45.9
	c5-20.3,25.5-32.7,45.9-27.7c19.6,4.8,31.9,24.1,28.1,43.9L176,167.2z"/>
</svg>
