<?xml version="1.0" encoding="utf-8"?>
<!-- Generator: Adobe Illustrator 26.5.0, SVG Export Plug-In . SVG Version: 6.00 Build 0)  -->
<svg version="1.1" id="Layer_1" xmlns="http://www.w3.org/2000/svg" xmlns:xlink="http://www.w3.org/1999/xlink" x="0px" y="0px"
	 viewBox="0 0 271.7 266.5" style="enable-background:new 0 0 271.7 266.5;" xml:space="preserve">
<style type="text/css">
	.st0{clip-path:url(#SVGID_00000010996158354939895870000000468030851776279690_);}
	.st1{fill:url(#SVGID_00000125569433771787053540000004918895041804266406_);}
	.st2{clip-path:url(#SVGID_00000039107187215669514040000004376786745312283029_);}
	.st3{fill:url(#SVGID_00000145050342299008193600000017422441226601829005_);}
</style>
<g>
	<defs>
		<path id="SVGID_1_" d="M9.6,133.6c0.5,70.2,57.9,126.8,128.2,126.2c69.4-0.5,125.5-56.6,126.2-125.9l-17.3,16.4
			c-1.4,53.4-45.8,95.7-99.2,94.3s-95.7-45.8-94.3-99.2C54.6,92,99,49.7,152.4,51.1c14.1,0.4,28,3.8,40.7,10.1L219,36.5
			C165.4-8.9,85.2-2.3,39.7,51.3C20.3,74.3,9.6,103.4,9.6,133.6"/>
	</defs>
	<clipPath id="SVGID_00000018936642272152860120000016793570518784292266_">
		<use xlink:href="#SVGID_1_"  style="overflow:visible;"/>
	</clipPath>
	<g style="clip-path:url(#SVGID_00000018936642272152860120000016793570518784292266_);">
		
			<linearGradient id="SVGID_00000034798819978366986430000008133207944130771075_" gradientUnits="userSpaceOnUse" x1="-1639.8016" y1="216.8463" x2="-1638.8016" y2="216.8463" gradientTransform="matrix(0 254.39 -254.39 0 55300.332 417157.1562)">
			<stop  offset="0" style="stop-color:#821441"/>
			<stop  offset="1.000000e-02" style="stop-color:#821441"/>
			<stop  offset="0.12" style="stop-color:#92134D"/>
			<stop  offset="0.35" style="stop-color:#B01164"/>
			<stop  offset="0.58" style="stop-color:#C61074"/>
			<stop  offset="0.8" style="stop-color:#D40F7E"/>
			<stop  offset="1" style="stop-color:#D80F81"/>
		</linearGradient>
		
			<rect x="9.6" y="6.4" style="fill:url(#SVGID_00000034798819978366986430000008133207944130771075_);" width="254.4" height="254.4"/>
	</g>
</g>
<g>
	<defs>
		<path id="SVGID_00000100360511790491796030000006114790285308204717_" d="M128.9,70.3l30,28.5c33,9.5,52.1,43.9,42.6,76.9
			s-43.9,52.1-76.9,42.6c-24.4-7-42.1-28.1-44.7-53.4l-10.6-10.1c3.6,44.5,42.6,77.7,87.1,74.1c44.5-3.6,77.7-42.6,74.1-87.1
			c-3.6-44.5-42.6-77.7-87.1-74.1C138.4,68.2,133.6,69,128.9,70.3"/>
	</defs>
	<clipPath id="SVGID_00000089547625639599409130000003908434937654984586_">
		<use xlink:href="#SVGID_00000100360511790491796030000006114790285308204717_"  style="overflow:visible;"/>
	</clipPath>
	<g style="clip-path:url(#SVGID_00000089547625639599409130000003908434937654984586_);">
		
			<linearGradient id="SVGID_00000052788973092525361160000001270849272111839152_" gradientUnits="userSpaceOnUse" x1="-1636.3705" y1="231.0453" x2="-1635.3705" y2="231.0453" gradientTransform="matrix(114.4169 -114.4169 114.4169 114.4169 160886.9688 -213459.5156)">
			<stop  offset="0" style="stop-color:#821441"/>
			<stop  offset="1.000000e-02" style="stop-color:#821441"/>
			<stop  offset="0.12" style="stop-color:#92134D"/>
			<stop  offset="0.35" style="stop-color:#B01164"/>
			<stop  offset="0.58" style="stop-color:#C61074"/>
			<stop  offset="0.8" style="stop-color:#D40F7E"/>
			<stop  offset="1" style="stop-color:#D80F81"/>
		</linearGradient>
		<polygon style="fill:url(#SVGID_00000052788973092525361160000001270849272111839152_);" points="-11.7,148.4 150,-13.2 
			311.7,148.4 150,310.1 		"/>
	</g>
</g>
<path d="M141.9,109c-27.6,0.2-49.7,22.7-49.5,50.3s22.7,49.7,50.3,49.5c27.4-0.2,49.5-22.5,49.5-49.9
	C192.1,131.2,169.6,108.9,141.9,109C141.9,109,141.9,109,141.9,109 M179.2,167h-47.9l-0.4-0.6c-1.4-2.5-1.9-5.4-1.4-8.3
	c1.3-6.9,7.9-11.5,14.8-10.3c3.5,0.6,6.5,2.7,8.4,5.6h10.4c-2.8-11.7-14.5-18.9-26.2-16.1S118,152,120.8,163.7
	c1.9,8,8.2,14.2,16.1,16.1c4.4,1.3,6.9,5.8,5.6,10.2c-1.2,4.1-5.3,6.6-9.5,5.8c-20.3-5-32.7-25.5-27.7-45.9
	c5-20.3,25.5-32.7,45.9-27.7c19.6,4.8,31.9,24.1,28.1,43.9L179.2,167z"/>
</svg>
