<?xml version="1.0" encoding="utf-8"?>
<!-- Generator: Adobe Illustrator 26.5.0, SVG Export Plug-In . SVG Version: 6.00 Build 0)  -->
<svg version="1.1" id="Layer_1" xmlns="http://www.w3.org/2000/svg" xmlns:xlink="http://www.w3.org/1999/xlink" x="0px" y="0px"
	 viewBox="0 0 346 155" style="enable-background:new 0 0 346 155;" xml:space="preserve">
<style type="text/css">
	.st0{fill:#FFFFFF;}
	.st1{enable-background:new    ;}
</style>
<path class="st0" d="M67.4,24.8H7.6v12.5h41.9L9.6,67.8C6,70.2,5,75.1,7.4,78.8c1.5,2.2,4,3.6,6.6,3.6h57.6V69.8h-42L72,37.3
	c3-2.5,3.4-7,0.8-10C71.5,25.7,69.5,24.8,67.4,24.8"/>
<path class="st0" d="M136.8,24.8h-36.1v12.5h29.4c2.9,0,5.3,2.4,5.3,5.3V43h-32.9c-9,0-16.3,7.3-16.3,16.3v7.3
	c0,8.7,7,15.7,15.7,15.7h32.9c8.7,0,15.7-7,15.7-15.7V38.4C150.5,30.9,144.4,24.8,136.8,24.8 M135.4,54.6v10.1c0,2.8-2.3,5-5,5
	h-23.4c-2.8,0-5-2.2-5-5v-5.1c0-2.8,2.2-5,5-5L135.4,54.6z"/>
<path class="st0" d="M211.7,24.8h-33.5c-8.7,0-15.7,7-15.7,15.7V67c0,9,7.3,16.3,16.3,16.3h32.9v1.2c0,2.9-2.4,5.3-5.3,5.3h-43.7
	v13.9h48.5c9,0,16.1-6,16.1-13.7V40.4C227.4,31.8,220.4,24.8,211.7,24.8 M211.7,43.1v26.5h-28.5c-2.8,0-5-2.2-5-5V43.1
	c0-2.8,2.2-5,5-5h23.4C209.4,38.1,211.7,40.3,211.7,43.1"/>
<path class="st0" d="M289.3,24.8h-36.1v12.5h29.4c2.9,0,5.3,2.4,5.3,5.3V43h-32.9c-9,0-16.3,7.3-16.3,16.3v7.3
	c0,8.7,7,15.7,15.7,15.7h32.9c8.7,0,15.7-7,15.7-15.7V38.4C303,30.9,296.9,24.8,289.3,24.8 M287.9,54.6v10.1c0,2.8-2.2,5-5,5h-23.5
	c-2.7,0-5-2.3-5-5v-5.1c0-2.8,2.2-5,5-5L287.9,54.6z"/>
<g class="st1">
	<path class="st0" d="M242.6,136.1V96.3h12.6c4.8,0,7.9,0.2,9.3,0.6c2.2,0.6,4.1,1.9,5.6,3.9c1.5,2,2.3,4.6,2.3,7.7
		c0,2.4-0.4,4.5-1.3,6.2s-2,3-3.3,3.9c-1.3,1-2.7,1.6-4.1,1.9c-1.9,0.4-4.6,0.6-8.2,0.6h-5.1v15H242.6z M250.5,103v11.3h4.3
		c3.1,0,5.2-0.2,6.2-0.6c1-0.4,1.9-1.1,2.5-2c0.6-0.9,0.9-1.9,0.9-3.1c0-1.4-0.4-2.6-1.2-3.6c-0.8-0.9-1.9-1.5-3.2-1.8
		c-0.9-0.2-2.8-0.3-5.7-0.3H250.5z"/>
</g>
<g class="st1">
	<path class="st0" d="M286.8,116l-6.8-1.2c0.8-2.8,2.1-4.8,3.9-6.2s4.6-2,8.3-2c3.3,0,5.8,0.4,7.4,1.2c1.6,0.8,2.8,1.8,3.4,3.1
		c0.7,1.2,1,3.5,1,6.8l-0.1,8.9c0,2.5,0.1,4.4,0.4,5.6c0.2,1.2,0.7,2.5,1.3,3.9h-7.4c-0.2-0.5-0.4-1.3-0.7-2.3
		c-0.1-0.5-0.2-0.8-0.3-0.9c-1.3,1.3-2.6,2.2-4.1,2.8c-1.5,0.6-3,1-4.6,1c-2.9,0-5.2-0.8-6.9-2.4c-1.7-1.6-2.5-3.6-2.5-6.1
		c0-1.6,0.4-3.1,1.1-4.4c0.8-1.3,1.8-2.3,3.2-2.9c1.4-0.7,3.3-1.3,5.9-1.8c3.5-0.7,5.9-1.3,7.2-1.9v-0.8c0-1.5-0.4-2.5-1.1-3.1
		c-0.7-0.6-2-0.9-4-0.9c-1.3,0-2.4,0.3-3.1,0.8S287.2,114.7,286.8,116z M296.8,122.2c-1,0.3-2.5,0.7-4.5,1.2
		c-2.1,0.5-3.4,0.9-4.1,1.3c-1,0.7-1.5,1.6-1.5,2.7c0,1.1,0.4,2,1.2,2.8c0.8,0.8,1.8,1.2,3,1.2c1.3,0,2.6-0.5,3.8-1.4
		c0.9-0.7,1.5-1.5,1.8-2.5c0.2-0.7,0.3-1.9,0.3-3.7V122.2z"/>
</g>
<g class="st1">
	<path class="st0" d="M310.1,107.2h7.9l6.7,20.5l6.6-20.5h7.7l-10,27.7l-1.8,5c-0.7,1.7-1.3,3-1.9,3.9s-1.3,1.6-2,2.2
		c-0.8,0.6-1.7,1-2.8,1.3s-2.4,0.5-3.8,0.5c-1.4,0-2.8-0.2-4.2-0.5l-0.7-6c1.2,0.2,2.2,0.4,3.2,0.4c1.7,0,3-0.5,3.8-1.6
		c0.8-1,1.5-2.4,1.9-4L310.1,107.2z"/>
</g>
</svg>
