<?xml version="1.0" encoding="utf-8"?>
<!-- Generator: Adobe Illustrator 26.5.0, SVG Export Plug-In . SVG Version: 6.00 Build 0)  -->
<svg version="1.1" id="Layer_1" xmlns="http://www.w3.org/2000/svg" xmlns:xlink="http://www.w3.org/1999/xlink" x="0px" y="0px"
	 viewBox="0 0 311 159" style="enable-background:new 0 0 311 159;" xml:space="preserve">
<style type="text/css">
	.st0{enable-background:new    ;}
	.st1{fill:#231F20;}
</style>
<path d="M69.4,45.8H9.6v12.5h41.9L11.6,88.8C8,91.2,7,96.1,9.4,99.8c1.5,2.2,4,3.6,6.6,3.6h57.6V90.8h-42L74,58.3
	c3-2.5,3.4-7,0.8-10C73.5,46.7,71.5,45.8,69.4,45.8"/>
<path d="M138.8,45.8h-36.1v12.5h29.4c2.9,0,5.3,2.4,5.3,5.3V64h-32.9c-9,0-16.3,7.3-16.3,16.3v7.3c0,8.7,7,15.7,15.7,15.7h32.9
	c8.7,0,15.7-7,15.7-15.7V59.4C152.5,51.9,146.4,45.8,138.8,45.8 M137.4,75.6v10.1c0,2.8-2.3,5-5,5H109c-2.8,0-5-2.2-5-5v-5.1
	c0-2.8,2.2-5,5-5H137.4z"/>
<path d="M213.7,45.8h-33.5c-8.7,0-15.7,7-15.7,15.7V88c0,9,7.3,16.3,16.3,16.3h32.9v1.2c0,2.9-2.4,5.3-5.3,5.3h-43.7v13.9h48.5
	c9,0,16.1-6,16.1-13.7V61.4C229.4,52.8,222.4,45.8,213.7,45.8 M213.7,64.1v26.5h-28.5c-2.8,0-5-2.2-5-5V64.1c0-2.8,2.2-5,5-5h23.4
	C211.4,59.1,213.7,61.3,213.7,64.1"/>
<path d="M291.3,45.8h-36.1v12.5h29.4c2.9,0,5.3,2.4,5.3,5.3V64H257c-9,0-16.3,7.3-16.3,16.3v7.3c0,8.7,7,15.7,15.7,15.7h32.9
	c8.7,0,15.7-7,15.7-15.7V59.4C305,51.9,298.9,45.8,291.3,45.8 M289.9,75.6v10.1c0,2.8-2.2,5-5,5h-23.5c-2.7,0-5-2.3-5-5v-5.1
	c0-2.8,2.2-5,5-5H289.9z"/>
<g class="st0">
	<path class="st1" d="M30,135.8l5.9,1c-0.8,2.2-1.9,3.8-3.6,4.9c-1.6,1.1-3.7,1.7-6.1,1.7c-3.9,0-6.7-1.3-8.6-3.8
		c-1.5-2-2.2-4.6-2.2-7.7c0-3.7,1-6.6,2.9-8.7c1.9-2.1,4.4-3.1,7.3-3.1c3.3,0,5.9,1.1,7.8,3.3c1.9,2.2,2.8,5.5,2.7,10H21.5
		c0,1.7,0.5,3.1,1.4,4.1c0.9,1,2,1.5,3.4,1.5c0.9,0,1.7-0.3,2.3-0.8C29.2,137.7,29.7,136.9,30,135.8z M30.4,129.8
		c0-1.7-0.5-3-1.3-3.9c-0.8-0.9-1.9-1.3-3.1-1.3c-1.3,0-2.3,0.5-3.2,1.4c-0.8,0.9-1.2,2.2-1.2,3.8H30.4z"/>
</g>
<g class="st0">
	<path class="st1" d="M43.9,142.8v-30.7h10c3.8,0,6.2,0.2,7.4,0.5c1.8,0.5,3.2,1.5,4.4,3c1.2,1.5,1.8,3.5,1.8,6c0,1.9-0.3,3.5-1,4.8
		c-0.7,1.3-1.6,2.3-2.6,3c-1.1,0.7-2.1,1.2-3.2,1.5c-1.5,0.3-3.6,0.4-6.4,0.4h-4v11.6H43.9z M50.1,117.3v8.7h3.4
		c2.4,0,4.1-0.2,4.9-0.5s1.5-0.8,1.9-1.5c0.5-0.7,0.7-1.5,0.7-2.4c0-1.1-0.3-2-1-2.8c-0.7-0.7-1.5-1.2-2.5-1.4
		c-0.7-0.1-2.2-0.2-4.5-0.2H50.1z"/>
</g>
<g class="st0">
	<path class="st1" d="M78.8,127.4l-5.3-1c0.6-2.2,1.6-3.7,3.1-4.8c1.5-1,3.6-1.6,6.5-1.6c2.6,0,4.6,0.3,5.9,0.9
		c1.3,0.6,2.2,1.4,2.7,2.4c0.5,1,0.8,2.7,0.8,5.3l-0.1,6.9c0,2,0.1,3.4,0.3,4.3s0.5,1.9,1.1,3h-5.8c-0.2-0.4-0.3-1-0.6-1.7
		c-0.1-0.3-0.2-0.6-0.2-0.7c-1,1-2.1,1.7-3.2,2.2c-1.1,0.5-2.4,0.7-3.7,0.7c-2.3,0-4.1-0.6-5.4-1.9c-1.3-1.2-2-2.8-2-4.7
		c0-1.3,0.3-2.4,0.9-3.4c0.6-1,1.4-1.7,2.5-2.3c1.1-0.5,2.6-1,4.7-1.4c2.8-0.5,4.7-1,5.7-1.4v-0.6c0-1.1-0.3-1.9-0.8-2.4
		c-0.6-0.5-1.6-0.7-3.2-0.7c-1,0-1.9,0.2-2.5,0.6S79.1,126.4,78.8,127.4z M86.6,132.2c-0.8,0.3-1.9,0.6-3.6,0.9
		c-1.6,0.3-2.7,0.7-3.2,1c-0.8,0.5-1.2,1.2-1.2,2.1c0,0.8,0.3,1.5,0.9,2.1c0.6,0.6,1.4,0.9,2.3,0.9c1.1,0,2.1-0.3,3-1
		c0.7-0.5,1.2-1.2,1.4-1.9c0.2-0.5,0.2-1.5,0.2-2.9V132.2z"/>
</g>
<g class="st0">
	<path class="st1" d="M97.2,120.6h6.3l5.3,15.8l5.2-15.8h6.1l-7.9,21.4l-1.4,3.9c-0.5,1.3-1,2.3-1.5,3c-0.5,0.7-1,1.2-1.6,1.7
		s-1.4,0.8-2.2,1c-0.9,0.2-1.9,0.4-3,0.4c-1.1,0-2.2-0.1-3.3-0.4l-0.5-4.6c0.9,0.2,1.8,0.3,2.5,0.3c1.4,0,2.4-0.4,3-1.2
		c0.7-0.8,1.2-1.8,1.5-3.1L97.2,120.6z"/>
</g>
</svg>
