<?xml version="1.0" encoding="utf-8"?>
<!-- Generator: Adobe Illustrator 26.5.0, SVG Export Plug-In . SVG Version: 6.00 Build 0)  -->
<svg version="1.1" id="Layer_1" xmlns="http://www.w3.org/2000/svg" xmlns:xlink="http://www.w3.org/1999/xlink" x="0px" y="0px"
	 viewBox="0 0 578.1 261.2" style="enable-background:new 0 0 578.1 261.2;" xml:space="preserve">
<style type="text/css">
	.st0{clip-path:url(#SVGID_00000054256968799931292480000014034780892959993001_);}
	.st1{fill:#FFFFFF;}
	.st2{clip-path:url(#SVGID_00000090267075051114959810000000192009312467278208_);}
	.st3{enable-background:new    ;}
</style>
<g>
	<g>
		<defs>
			<path id="SVGID_1_" d="M6,132.1c0.5,70.2,57.9,126.8,128.2,126.2c69.4-0.5,125.5-56.6,126.2-125.9l-17.3,16.4
				c-1.4,53.4-45.8,95.7-99.2,94.3s-95.7-45.8-94.3-99.2c1.4-53.4,45.8-95.7,99.2-94.3c14.1,0.4,28,3.8,40.7,10.1L215.4,35
				C161.8-10.4,81.5-3.8,36.1,49.8C16.7,72.8,6,101.9,6,132.1"/>
		</defs>
		<use xlink:href="#SVGID_1_"  style="overflow:visible;fill:#FFFFFF;"/>
		<clipPath id="SVGID_00000027581437378933355330000005682359042805484217_">
			<use xlink:href="#SVGID_1_"  style="overflow:visible;"/>
		</clipPath>
		<g style="clip-path:url(#SVGID_00000027581437378933355330000005682359042805484217_);">
			<rect x="6" y="4.9" class="st1" width="254.4" height="254.4"/>
		</g>
	</g>
</g>
<g>
	<g>
		<defs>
			<path id="SVGID_00000115511237520457986310000008763360402106525614_" d="M125.2,68.8l30,28.5c33,9.5,52.1,43.9,42.6,76.9
				s-43.9,52.1-76.9,42.6c-24.4-7-42.1-28.1-44.7-53.4l-10.6-10.1c3.6,44.5,42.6,77.7,87.1,74.1c44.5-3.6,77.7-42.6,74.1-87.1
				s-42.6-77.7-87.1-74.1C134.8,66.7,130,67.5,125.2,68.8"/>
		</defs>
		<use xlink:href="#SVGID_00000115511237520457986310000008763360402106525614_"  style="overflow:visible;fill:#FFFFFF;"/>
		<clipPath id="SVGID_00000151510230967834062240000003259939114336378283_">
			<use xlink:href="#SVGID_00000115511237520457986310000008763360402106525614_"  style="overflow:visible;"/>
		</clipPath>
		<g style="clip-path:url(#SVGID_00000151510230967834062240000003259939114336378283_);">
			<polygon class="st1" points="-15.3,146.9 146.4,-14.7 308.1,146.9 146.4,308.6 			"/>
		</g>
	</g>
</g>
<g>
	<path class="st1" d="M336.5,130.8h-59.8v12.5h41.9l-39.8,30.5c-3.6,2.4-4.6,7.3-2.2,11c1.5,2.2,4,3.6,6.6,3.6h57.6v-12.5h-42
		l42.4-32.5c3-2.5,3.4-7,0.8-10C340.6,131.7,338.6,130.8,336.5,130.8"/>
	<path class="st1" d="M405.9,130.8h-36.1v12.5h29.4c2.9,0,5.3,2.4,5.3,5.3v0.5h-32.9c-9,0-16.3,7.3-16.3,16.3v7.3
		c0,8.7,7,15.7,15.7,15.7h32.9c8.7,0,15.7-7,15.7-15.7v-28.2C419.6,136.9,413.5,130.8,405.9,130.8 M404.5,160.6v10.1
		c0,2.8-2.3,5-5,5h-23.4c-2.8,0-5-2.2-5-5v-5.1c0-2.8,2.2-5,5-5H404.5z"/>
	<path class="st1" d="M480.8,130.8h-33.5c-8.7,0-15.7,7-15.7,15.7V173c0,9,7.3,16.3,16.3,16.3h32.9v1.2c0,2.9-2.4,5.3-5.3,5.3h-43.7
		v13.9h48.5c9,0,16.1-6,16.1-13.7v-49.6C496.5,137.8,489.5,130.8,480.8,130.8 M480.8,149.1v26.5h-28.5c-2.8,0-5-2.2-5-5v-21.5
		c0-2.8,2.2-5,5-5h23.4C478.5,144.1,480.8,146.3,480.8,149.1"/>
	<path class="st1" d="M558.4,130.8h-36.1v12.5h29.4c2.9,0,5.3,2.4,5.3,5.3v0.5h-32.9c-9,0-16.3,7.3-16.3,16.3v7.3
		c0,8.7,7,15.7,15.7,15.7h32.9c8.7,0,15.7-7,15.7-15.7v-28.2C572.1,136.9,566,130.8,558.4,130.8 M557,160.6v10.1c0,2.8-2.2,5-5,5
		h-23.5c-2.7,0-5-2.3-5-5v-5.1c0-2.8,2.2-5,5-5H557z"/>
	<path class="st1" d="M138.3,107.5c-27.6,0.2-49.7,22.7-49.5,50.3s22.7,49.7,50.3,49.5c27.4-0.2,49.5-22.5,49.5-49.9
		C188.4,129.7,165.9,107.4,138.3,107.5L138.3,107.5 M175.5,165.5h-47.9l-0.4-0.6c-1.4-2.5-1.9-5.4-1.4-8.3
		c1.3-6.9,7.9-11.5,14.8-10.3c3.5,0.6,6.5,2.7,8.4,5.6h10.4c-2.8-11.7-14.5-18.9-26.2-16.1s-18.9,14.5-16.1,26.2
		c1.9,8,8.2,14.2,16.1,16.1c4.4,1.3,6.9,5.8,5.6,10.2c-1.2,4.1-5.3,6.6-9.5,5.8c-20.3-5-32.7-25.5-27.7-45.9
		c5-20.3,25.5-32.7,45.9-27.7c19.6,4.8,31.9,24.1,28.1,43.9L175.5,165.5z"/>
</g>
<g class="st3">
	<path class="st1" d="M297.1,220.8l5.9,1c-0.8,2.2-1.9,3.8-3.6,4.9c-1.6,1.1-3.7,1.7-6.1,1.7c-3.9,0-6.7-1.3-8.6-3.8
		c-1.5-2-2.2-4.6-2.2-7.7c0-3.7,1-6.6,2.9-8.7c1.9-2.1,4.4-3.1,7.3-3.1c3.3,0,5.9,1.1,7.8,3.3c1.9,2.2,2.8,5.5,2.7,10h-14.8
		c0,1.7,0.5,3.1,1.4,4.1c0.9,1,2,1.5,3.4,1.5c0.9,0,1.7-0.3,2.3-0.8C296.3,222.7,296.8,221.9,297.1,220.8z M297.4,214.8
		c0-1.7-0.5-3-1.3-3.9c-0.8-0.9-1.9-1.3-3.1-1.3c-1.3,0-2.3,0.5-3.2,1.4c-0.8,0.9-1.2,2.2-1.2,3.8H297.4z"/>
</g>
<g class="st3">
	<path class="st1" d="M311,227.8v-30.7h10c3.8,0,6.2,0.2,7.4,0.5c1.8,0.5,3.2,1.5,4.4,3c1.2,1.5,1.8,3.5,1.8,6c0,1.9-0.3,3.5-1,4.8
		c-0.7,1.3-1.6,2.3-2.6,3c-1.1,0.7-2.1,1.2-3.2,1.5c-1.5,0.3-3.6,0.4-6.4,0.4h-4v11.6H311z M317.2,202.3v8.7h3.4
		c2.4,0,4.1-0.2,4.9-0.5s1.5-0.8,1.9-1.5c0.5-0.7,0.7-1.5,0.7-2.4c0-1.1-0.3-2-1-2.8c-0.7-0.7-1.5-1.2-2.5-1.4
		c-0.7-0.1-2.2-0.2-4.5-0.2H317.2z"/>
</g>
<g class="st3">
	<path class="st1" d="M345.8,212.4l-5.3-1c0.6-2.2,1.6-3.7,3.1-4.8c1.5-1,3.6-1.6,6.5-1.6c2.6,0,4.6,0.3,5.9,0.9
		c1.3,0.6,2.2,1.4,2.7,2.4c0.5,1,0.8,2.7,0.8,5.3l-0.1,6.9c0,2,0.1,3.4,0.3,4.3s0.5,1.9,1.1,3h-5.8c-0.2-0.4-0.3-1-0.6-1.7
		c-0.1-0.3-0.2-0.6-0.2-0.7c-1,1-2.1,1.7-3.2,2.2c-1.1,0.5-2.4,0.7-3.7,0.7c-2.3,0-4.1-0.6-5.4-1.9c-1.3-1.2-2-2.8-2-4.7
		c0-1.3,0.3-2.4,0.9-3.4c0.6-1,1.4-1.7,2.5-2.3c1.1-0.5,2.6-1,4.7-1.4c2.8-0.5,4.7-1,5.7-1.4v-0.6c0-1.1-0.3-1.9-0.8-2.4
		c-0.6-0.5-1.6-0.7-3.2-0.7c-1,0-1.9,0.2-2.5,0.6S346.2,211.4,345.8,212.4z M353.7,217.2c-0.8,0.3-1.9,0.6-3.6,0.9
		c-1.6,0.3-2.7,0.7-3.2,1c-0.8,0.5-1.2,1.2-1.2,2.1c0,0.8,0.3,1.5,0.9,2.1c0.6,0.6,1.4,0.9,2.3,0.9c1.1,0,2.1-0.3,3-1
		c0.7-0.5,1.2-1.2,1.4-1.9c0.2-0.5,0.2-1.5,0.2-2.9V217.2z"/>
</g>
<g class="st3">
	<path class="st1" d="M364.3,205.6h6.3l5.3,15.8l5.2-15.8h6.1l-7.9,21.4l-1.4,3.9c-0.5,1.3-1,2.3-1.5,3c-0.5,0.7-1,1.2-1.6,1.7
		s-1.4,0.8-2.2,1c-0.9,0.2-1.9,0.4-3,0.4c-1.1,0-2.2-0.1-3.3-0.4l-0.5-4.6c0.9,0.2,1.8,0.3,2.5,0.3c1.4,0,2.4-0.4,3-1.2
		c0.7-0.8,1.2-1.8,1.5-3.1L364.3,205.6z"/>
</g>
</svg>
