<?xml version="1.0" encoding="UTF-8" standalone="no"?>
<!-- Created with Inkscape (http://www.inkscape.org/) -->

<svg
   version="1.1"
   id="svg1"
   width="2518.6587"
   height="824.25256"
   viewBox="0 0 2518.6587 824.25252"
   sodipodi:docname="Mastercard-New.svg"
   inkscape:version="1.3 (0e150ed6c4, 2023-07-21)"
   xmlns:inkscape="http://www.inkscape.org/namespaces/inkscape"
   xmlns:sodipodi="http://sodipodi.sourceforge.net/DTD/sodipodi-0.dtd"
   xmlns="http://www.w3.org/2000/svg"
   xmlns:svg="http://www.w3.org/2000/svg">
  <defs
     id="defs1">
    <clipPath
       clipPathUnits="userSpaceOnUse"
       id="clipPath2">
      <path
         d="M 0,1556 H 2000 V 0 H 0 Z"
         transform="translate(-363.85001,-8.8400002)"
         id="path2" />
    </clipPath>
    <clipPath
       clipPathUnits="userSpaceOnUse"
       id="clipPath4">
      <path
         d="M 0,1556 H 2000 V 0 H 0 Z"
         transform="translate(-1941.2899,-554.78001)"
         id="path4" />
    </clipPath>
    <clipPath
       clipPathUnits="userSpaceOnUse"
       id="clipPath6">
      <path
         d="M 0,1556 H 2000 V 0 H 0 Z"
         transform="translate(-1270.5699,-451.85001)"
         id="path6" />
    </clipPath>
    <clipPath
       clipPathUnits="userSpaceOnUse"
       id="clipPath8">
      <path
         d="M 0,1556 H 2000 V 0 H 0 Z"
         transform="translate(-764.00004,-937.83002)"
         id="path8" />
    </clipPath>
    <clipPath
       clipPathUnits="userSpaceOnUse"
       id="clipPath10">
      <path
         d="M 0,1556 H 2000 V 0 H 0 Z"
         transform="translate(-2000.2501,-937.83002)"
         id="path10" />
    </clipPath>
  </defs>
  <sodipodi:namedview
     id="namedview1"
     pagecolor="#ffffff"
     bordercolor="#000000"
     borderopacity="0.25"
     inkscape:showpageshadow="2"
     inkscape:pageopacity="0.0"
     inkscape:pagecheckerboard="0"
     inkscape:deskcolor="#d1d1d1"
     inkscape:zoom="0.39187016"
     inkscape:cx="1185.3416"
     inkscape:cy="452.95615"
     inkscape:window-width="1920"
     inkscape:window-height="1009"
     inkscape:window-x="1912"
     inkscape:window-y="-8"
     inkscape:window-maximized="1"
     inkscape:current-layer="layer-MC0">
    <inkscape:page
       x="0"
       y="0"
       inkscape:label="1"
       id="page1"
       width="2518.6587"
       height="824.2525"
       margin="581.82544 0 663.48505"
       bleed="0" />
  </sodipodi:namedview>
  <g
     id="layer-MC0"
     inkscape:groupmode="layer"
     inkscape:label="Laag 1"
     transform="translate(-148.00822,-586.92909)">
    <g
       id="g1"
       transform="matrix(0.77790358,0,0,0.77790358,198.9668,626.02874)">
      <path
         id="path1"
         d="m 0,0 v 103 c 0,38.79 -24.72,64.89 -64.57,65.24 -20.95,0.35 -42.56,-6.17 -57.69,-29.2 -11.32,18.2 -29.16,29.2 -54.24,29.2 -17.53,0 -34.66,-5.15 -48.07,-24.37 v 20.29 h -35.72 V 0.04 h 36 v 91 c 0,28.49 15.8,43.63 40.2,43.63 23.7,0 35.69,-15.45 35.69,-43.27 V 0.06 h 36.08 v 91 c 0,28.49 16.47,43.63 40.16,43.63 24.37,0 36,-15.45 36,-43.27 V 0.08 Z m 533.59,164.16 h -58.36 v 49.79 h -36.08 v -49.79 h -33.29 v -32.62 h 33.29 V 56.67 c 0,-38.08 14.78,-60.76 57,-60.76 15.49,0 33.33,4.8 44.65,12.69 l -10.31,30.56 c -10.65,-6.17 -22.32,-9.28 -31.6,-9.28 -17.84,0 -23.66,11 -23.66,27.47 v 74.16 h 58.36 z m 304.56,4.09 c -20.59,0 -34,-9.63 -43.23,-24.05 v 19.96 H 759.55 V 0.04 h 35.69 v 92 c 0,27.16 11.67,42.25 35,42.25 7.64,0.11 15.226,-1.293 22.32,-4.13 l 11,33.64 c -7.9,3.11 -18.2,4.48 -25.43,4.48 M 377.64,151.11 c -17.17,11.32 -40.83,17.17 -66.93,17.17 -41.58,0 -68.35,-19.93 -68.35,-52.54 0,-26.76 19.93,-43.27 56.63,-48.42 l 16.86,-2.4 c 19.57,-2.75 28.81,-7.9 28.81,-17.17 0,-12.69 -13,-19.93 -37.41,-19.93 -24.72,0 -42.56,7.9 -54.59,17.17 L 235.89,17.16 c 19.57,-14.42 44.29,-21.3 71.06,-21.3 47.4,0 74.87,22.32 74.87,53.57 0,28.85 -21.62,43.94 -57.34,49.09 l -16.82,2.44 c -15.45,2 -27.83,5.11 -27.83,16.11 0,12 11.67,19.22 31.25,19.22 20.95,0 41.23,-7.9 51.17,-14.07 l 15.45,28.85 z m 956.66,17.2 c -20.59,0 -34,-9.63 -43.27,-24.05 v 19.9 h -35.37 V 0.04 h 35.73 v 92 c 0,27.16 11.67,42.25 35,42.25 7.639,0.11 15.225,-1.293 22.32,-4.13 l 11,33.64 c -7.9,3.11 -18.2,4.48 -25.43,4.48 M 874.2,82.12 c 0,-49.79 34.66,-86.19 87.56,-86.19 24.72,0 41.19,5.5 59,19.57 l -17.14,28.85 c -13.4,-9.63 -27.47,-14.78 -43,-14.78 -28.49,0.35 -49.44,20.95 -49.44,52.55 0,31.6 20.95,52.19 49.44,52.55 15.49,0 29.56,-5.15 43,-14.78 l 17.14,28.85 c -17.84,14.07 -34.31,19.57 -59,19.57 -52.9,0 -87.56,-36.39 -87.56,-86.19 m 334.42,0 v 82.04 h -35.67 v -20 c -11.36,14.78 -28.49,24.05 -51.84,24.05 -46,0 -82.1,-36.08 -82.1,-86.19 0,-50.11 36.08,-86.19 82.1,-86.19 23.35,0 40.48,9.28 51.84,24.05 V -0.05 h 35.68 v 82.11 z m -132.87,0 c 0,28.85 18.9,52.55 49.79,52.55 29.52,0 49.44,-22.68 49.44,-52.55 0,-29.87 -19.92,-52.55 -49.44,-52.55 -30.89,0 -49.8,23.7 -49.8,52.55 M 644.87,168.3 c -48.1,0 -81.75,-35 -81.75,-86.19 0,-52.19 35,-86.19 84.14,-86.19 24.72,0 47.36,6.17 67.28,23 L 697.05,45.37 C 683.29,34.37 665.77,28.2 649.3,28.2 c -23,0 -43.94,10.65 -49.09,40.2 h 121.87 c 0.35,4.44 0.71,8.92 0.71,13.72 -0.36,51.17 -32,86.19 -77.94,86.19 m -0.7,-32.01 c 23,0 37.77,-14.42 41.54,-39.81 h -85.16 c 3.81,23.7 18.2,39.81 43.63,39.81 m 895.87,-54.24 v 148 h -35.72 v -85.9 c -11.32,14.78 -28.49,24.05 -51.84,24.05 -46,0 -82.1,-36.08 -82.1,-86.19 0,-50.11 36.08,-86.19 82.1,-86.19 23.35,0 40.52,9.28 51.84,24.05 V -0.05 h 35.72 z m -132.92,0 c 0,28.85 18.9,52.55 49.8,52.55 29.55,0 49.44,-22.68 49.44,-52.55 0,-29.87 -19.89,-52.55 -49.44,-52.55 -30.89,0 -49.8,23.7 -49.8,52.55 m -1205.92,0 v 82.1 H 165.5 v -20 c -11.32,14.78 -28.49,24.05 -51.84,24.05 -46,0 -82.1,-36.08 -82.1,-86.19 0,-50.11 36.08,-86.19 82.1,-86.19 23.34,0 40.52,9.28 51.84,24.05 V -0.05 h 35.65 v 82.11 z m -132.88,0 c 0,28.85 18.9,52.55 49.79,52.55 29.52,0 49.44,-22.68 49.44,-52.55 0,-29.87 -19.92,-52.55 -49.44,-52.55 -30.89,0 -49.79,23.7 -49.79,52.55 m 1531.2,-58.43 c 4.395,0.004 8.615,-1.72 11.75,-4.8 1.511,-1.479 2.715,-3.243 3.54,-5.19 1.727,-4.04 1.727,-8.61 0,-12.65 -0.845,-1.936 -2.046,-3.697 -3.54,-5.19 -1.534,-1.471 -3.319,-2.656 -5.27,-3.5 -2.049,-0.87 -4.254,-1.313 -6.48,-1.3 -2.252,-0.016 -4.484,0.426 -6.56,1.3 -1.974,0.824 -3.775,2.011 -5.31,3.5 -1.494,1.548 -2.679,3.367 -3.49,5.36 -1.727,4.04 -1.727,8.61 0,12.65 0.825,1.947 2.029,3.711 3.54,5.19 1.515,1.515 3.321,2.705 5.31,3.5 2.076,0.874 4.308,1.316 6.56,1.3 m -0.05,-29.07 c 1.689,-0.016 3.362,0.325 4.91,1 1.493,0.642 2.85,1.562 4,2.71 1.152,1.146 2.073,2.505 2.71,4 1.312,3.169 1.312,6.73 0,9.9 -0.647,1.49 -1.566,2.847 -2.71,4 -1.151,1.147 -2.508,2.067 -4,2.71 -1.557,0.638 -3.227,0.958 -4.91,0.94 -1.712,0.016 -3.411,-0.303 -5,-0.94 -1.526,-0.631 -2.915,-1.551 -4.09,-2.71 -3.616,-3.709 -4.667,-9.22 -2.67,-14 0.609,-1.501 1.517,-2.862 2.67,-4 1.176,-1.158 2.565,-2.079 4.09,-2.71 1.58,-0.675 3.282,-1.015 5,-1 m 1,20.46 c 1.599,0.098 3.182,-0.361 4.48,-1.3 1.055,-0.864 1.638,-2.178 1.57,-3.54 0.048,-1.17 -0.411,-2.304 -1.26,-3.11 -1.001,-0.87 -2.257,-1.393 -3.58,-1.49 l 5,-5.7 h -3.85 l -4.6,5.66 h -1.49 v -5.66 h -3.22 v 15.13 h 7 z m -3.77,-2.83 v -4 h 3.73 c 0.7,-0.011 1.391,0.165 2,0.51 0.494,0.35 0.776,0.926 0.75,1.53 0.026,0.593 -0.258,1.157 -0.75,1.49 -0.602,0.362 -1.298,0.539 -2,0.51 h -3.73 z"
         style="fill:#231f20;fill-opacity:1;fill-rule:nonzero;stroke:none"
         transform="matrix(0.59074036,0,0,-0.59074036,214.94092,913.96991)"
         clip-path="url(#clipPath2)" />
      <path
         id="path3"
         d="m 0,0 v 19.89 h 8 v 4.05 h -20.44 v -4.05 h 8 V 0 h 4.4 z M 39.65,0 V 24 H 33.4 L 26.17,7.53 18.98,24 H 12.71 V 0 h 4.44 v 18.08 l 6.76,-15.6 h 4.6 l 6.76,15.64 V 0 h 4.4 z"
         style="fill:#f79410;fill-opacity:1;fill-rule:nonzero;stroke:none"
         transform="matrix(0.59074036,0,0,-0.59074036,1146.7983,591.46111)"
         clip-path="url(#clipPath4)" />
      <path
         id="path5"
         d="M 0,0 H -540.86 V 972 H 0.01 Z"
         style="fill:#ff5f00;fill-opacity:1;fill-rule:nonzero;stroke:none"
         transform="matrix(0.59074036,0,0,-0.59074036,750.57697,652.26601)"
         clip-path="url(#clipPath6)" />
      <path
         id="path7"
         d="M 0,0 C 0,197.17 92.32,372.81 236.08,486 127.261,571.805 -7.331,618.375 -145.91,618.17 -487.28,618.17 -764,341.41 -764,0 c 0,-341.41 276.72,-618.17 618.09,-618.17 138.582,-0.207 273.178,46.363 382,132.17 C 92.34,-372.83 0,-197.18 0,0"
         style="fill:#eb001b;fill-opacity:1;fill-rule:nonzero;stroke:none"
         transform="matrix(0.59074036,0,0,-0.59074036,451.32569,365.17801)"
         clip-path="url(#clipPath8)" />
      <path
         id="path9"
         d="m 0,0 c 0,-341.41 -276.72,-618.17 -618.09,-618.17 -138.597,-0.203 -273.208,46.365 -382.05,132.17 143.8,113.19 236.12,288.82 236.12,486 0,197.18 -92.32,372.81 -236.12,486 108.84,85.803 243.447,132.371 382.04,132.17 C -276.73,618.17 -0.01,341.41 -0.01,0"
         style="fill:#f79e1b;fill-opacity:1;fill-rule:nonzero;stroke:none"
         transform="matrix(0.59074036,0,0,-0.59074036,1181.6285,365.17801)"
         clip-path="url(#clipPath10)" />
    </g>
    <g
       id="g2"
       transform="matrix(4.6416021,0,0,4.6416021,1221.0474,778.7984)">
      <path
         d="m 184.19,0.98314 c -22.429,0 -38.184,11.924 -38.323,28.974 -0.14202,12.631 11.267,19.674 19.848,23.872 8.853,4.2916 11.81,7.0495 11.781,10.889 -0.088,5.885 -7.0841,8.5662 -13.585,8.5662 -9.0632,0 -13.895,-1.3235 -21.322,-4.5898 l -2.9448,-1.3997 -3.172,19.651 c 5.3027,2.4455 15.095,4.5643 25.275,4.675 23.801,0 39.287,-11.787 39.471,-29.987 0.0937,-10.018 -5.9622,-17.6 -19.056,-23.86 -7.9044,-4.0701 -12.792,-6.7689 -12.719,-10.893 0.006,-3.644 4.1013,-7.5494 12.991,-7.5494 7.4244,-0.12497 12.764,1.5792 16.968,3.3742 l 2.0222,1.0089 3.0845,-19.036 c -4.48,-1.7697 -11.55,-3.6949 -20.32,-3.6949 z m -70.41,1.5315 -14.186,87.808 h 22.665 l 14.194,-87.809 h -22.67 z m -33.205,0.0852 -22.194,59.844 -2.366,-12.16 c -5.527,-14.911 -17.492,-30.552 -31.426,-36.891 l 20.302,76.846 24,-0.01134 35.69,-87.627 H 80.575 Z m 164.57,0.00568 c -5.4305,0 -9.5,1.5479 -11.897,7.2881 l -33.657,80.458 h 23.813 c 0,0 3.8934,-10.83 4.7739,-13.201 2.5988,0 25.727,0.04995 29.027,0.04995 0.70154,3.0618 2.7607,13.15 2.7607,13.15 h 21.055 l -18.359,-87.745 h -17.516 z m 1.6019,23.673 1.511,7.5698 c 0,0 4.3569,20.951 5.2658,25.339 h -18.822 c 1.8831,-5.0386 9.032,-24.544 9.032,-24.544 -0.13917,0.23858 1.8598,-5.0789 3.0129,-8.3651 z"
         fill="#0023a0"
         id="path1-6" />
      <path
         d="M 37.798,2.5538 H 1.23 l -0.21302,1.511 c 28.431,7.2712 47.188,25.127 54.998,46.242 l -7.947,-40.357 c -1.366,-5.5501 -5.345,-7.2002 -10.27,-7.3962"
         fill="#ffab00"
         id="path2-2" />
    </g>
  </g>
</svg>
