<?xml version="1.0" encoding="utf-8"?>
<!-- Generator: Adobe Illustrator 25.4.1, SVG Export Plug-In . SVG Version: 6.00 Build 0)  -->
<svg version="1.0" id="katman_1" xmlns="http://www.w3.org/2000/svg" xmlns:xlink="http://www.w3.org/1999/xlink" x="0px" y="0px"
	 viewBox="0 0 1500 1200" style="enable-background:new 0 0 1500 1200;" xml:space="preserve">
<style type="text/css">
	.st0{fill:#436B97;}
	.st1{fill:#020203;}
	.st2{fill:#B84840;}
</style>
<path id="Path_132" class="st0" d="M1065.7,423.8H1355c-2.8,14.8-5.6,29.3-8.4,44.3h-64.5c-12.3,65.6-24.6,130.8-36.9,196.1h-50.9
	c12.3-65.4,24.5-130.5,36.8-195.9h-122.8c-3.6,18.3-7.2,36.9-11,55.9h84.2c-2.9,14.6-5.7,28.7-8.5,43.2h-83.8
	c-6.1,32.4-12.2,64.5-18.3,96.8h-50.9C1035.3,584.2,1050.4,504.3,1065.7,423.8"/>
<path id="Path_133" class="st0" d="M948.1,466.9c-3.4,17.6-6.7,34.7-10.2,52.6h82.4c-2.8,14.5-5.4,28.4-8.1,42.7h-82.4
	c-3.7,19.7-7.4,39-11.2,59h96.3c-2.7,14.5-5.3,28.6-8,43H859.6l45.6-240.3h142.3c-2.8,14.4-5.5,28.5-8.3,43.1L948.1,466.9z"/>
<path id="Path_134" class="st1" d="M639.2,559.8c-6.2,35.5-16.8,70.1-15.8,106.5h-30c0.4-6.9,0.8-13.7,1.2-19.9
	c-4.3,5.1-8.9,10-13.8,14.6c-12.9,10.8-31.7,10.9-44.7,0.2c-6.6-5.9-10.6-14.1-11.3-22.9c-2.9-23.1,5-46.2,21.4-62.8
	c10.8-10.8,24.8-17.8,39.9-20c16.9-2.6,34.1-1.4,50.5,3.3C637.5,559.1,638.2,559.4,639.2,559.8 M602.6,580.4
	c-6.9-2.2-14.4-1.6-20.8,1.7c-16.6,10.7-25.5,30-22.9,49.6c0.5,6.6,6.3,11.6,12.9,11.1c0.3,0,0.7-0.1,1-0.1c3.6-0.8,6.9-2.5,9.7-4.9
	c5.4-4.7,9.3-10.9,11.1-17.8c2.4-8.1,4.2-16.5,6.1-24.7C600.8,590.2,601.7,585.2,602.6,580.4"/>
<path id="Path_135" class="st1" d="M225.1,666.3c6.7-36.5,13.4-72.7,20.1-109.2h28.3c-0.6,5.6-1.3,11-1.8,16c3-2.7,6.1-5.6,9.3-8.3
	c10.2-8.8,23.9-12.4,37.1-9.6c11.2,2,19.4,11.5,19.9,22.8c0.7,9.5,0,19.1-2.1,28.4c-2.8,14.9-5.6,29.9-8.5,44.8
	c-0.9,4.9-1.9,9.8-2.9,15H292c1.3-6.7,2.5-13.2,3.7-19.6c2.9-16.1,5.8-32.1,8.5-48.2c0.4-2.6,0.4-5.3,0.1-7.9
	c-0.8-8.2-6.4-11.9-15.1-9c-7.1,3-12.7,8.6-15.6,15.7c-4.1,8.3-6.8,17.3-8,26.5c-2.6,14.2-5.3,28.3-8.1,42.7L225.1,666.3z"/>
<path id="Path_136" class="st1" d="M679.2,666.3h-32.1c6.7-36.5,13.4-72.8,20.1-109.2h28.3l-2,17.4c1.2-1.3,1.8-1.9,2.4-2.6
	c8.5-11.2,21.8-17.7,35.9-17.6c16.6-0.1,27,8.4,28.4,26.1c0.4,9.6-0.6,19.3-2.8,28.7c-2.8,14.9-5.6,29.7-8.4,44.6
	c-0.8,4.2-1.6,8.3-2.5,12.7h-32.4c0.7-4,1.4-7.8,2.1-11.6c3.2-17.4,6.6-34.7,9.6-52.1c0.6-3.9,0.8-7.9,0.5-11.8
	c-0.5-8.8-6.5-11.7-14.6-9.5c-5.5,1.9-10.2,5.7-13.1,10.8c-5.7,9-9.3,19.1-10.7,29.6c-2.6,14.3-5.3,28.6-8,42.9
	C679.7,665.2,679.5,665.8,679.2,666.3"/>
<path id="Path_137" class="st1" d="M792.7,581.5h-13.5l4.5-24.7h14.1c2.5-12.7,4.9-25.1,7.3-37.7h31.7c-2.4,12.5-4.7,24.6-7.1,37.3
	h21.2c-1.6,8.6-3.1,16.6-4.7,24.9h-21.2c-0.8,4.1-1.7,7.9-2.4,11.8c-1.9,10-3.9,20-5.7,30.1c-0.6,3.3-0.9,6.7-0.9,10.1
	c-0.4,4,2.5,7.5,6.4,7.9c0.2,0,0.5,0,0.7,0c1.9,0.2,3.8,0.3,5.7,0.2c1.9,0,3.7-0.2,5.9-0.3c-1,5.2-2,10.1-2.9,15
	c-0.6,2.3-1,4.6-1.3,6.9c0.1,2.4-1.9,4.5-4.3,4.5c0,0,0,0-0.1,0c-10,2.4-20.4,1.9-30.2-1.3c-8.2-3.2-13.5-11.1-13.4-19.9
	c0.4-11.3,1.9-22.6,4.6-33.6c1.8-9.4,3.7-18.9,5.6-28.3C792.7,583.5,792.7,582.5,792.7,581.5"/>
<path id="Path_138" class="st1" d="M437.4,560c-2.6,7.7-5,15.1-7.6,22.8c-2.5-0.9-4.8-1.8-7.1-2.5c-7-2.5-14.5-2.9-21.8-1.3
	c-1.8,0.6-3.5,1.5-4.9,2.7c-3,2.3-3.6,6.7-1.3,9.7c0.2,0.3,0.5,0.6,0.7,0.8c3,2.6,6.2,4.8,9.6,6.8c4.9,3.1,10.2,5.8,14.8,9.3
	c13.1,10.5,15.3,29.6,4.9,42.7c-0.1,0.1-0.2,0.2-0.3,0.3c-6.4,8.2-15.7,13.7-26,15.5c-15,3.5-30.7,2.4-45.1-3.1
	c-2.1-0.8-4-2.1-6.3-3.3l7.9-22.9c1.9,0.8,3.6,1.5,5.3,2.2c7.7,3.5,16,5.3,24.5,5.2c2.6-0.1,5.2-0.7,7.6-1.8
	c4.4-1.8,6.5-6.8,4.7-11.2c-0.5-1.1-1.2-2.2-2.1-3c-3-2.8-6.4-5.2-10.1-7.1c-6-2.9-11.6-6.8-16.5-11.3c-10.7-11.9-10.3-30.2,1-41.6
	c7.4-7.7,17.3-12.6,27.9-13.7c12.2-2.1,24.7-1,36.3,3C435.1,558.8,436.3,559.4,437.4,560"/>
<path id="Path_139" class="st1" d="M505,641.2c-0.8,5.7-1.6,11-2.3,16.4c-0.2,1.5-0.5,3-0.7,4.5c-0.6,4.8-0.6,5-5.3,5.8
	c-9,2-18.3,1.8-27.3-0.5c-9.6-2.6-16.2-11.4-15.8-21.3c0.3-10.9,1.8-21.7,4.3-32.2c1.8-9.6,3.8-19.3,5.7-28.9
	c0.2-0.9,0.2-1.8,0.3-3.3h-13.6c1.6-8.6,3-16.6,4.6-24.8h14c1.5-7.7,3-15.2,4.6-23.2l33.1-7.7c-2,10.5-3.8,20.4-5.8,30.8h23.2
	c-1.6,8.5-3.1,16.4-4.7,24.6h-23.2c-1.2,5.9-2.4,11.5-3.5,17.1c-1.7,8.7-3.5,17.4-5,26.2c-0.5,3.2-0.7,6.4-0.5,9.6
	c-0.2,3.6,2.6,6.6,6.2,6.8c0,0,0,0,0.1,0C497,641.5,500.7,641.2,505,641.2"/>
<path id="Path_140" class="st1" d="M186.3,557.1h32.5c-6.9,36.6-13.9,72.8-20.7,109.2h-32.5C172.5,629.8,179.4,593.6,186.3,557.1"/>
<path id="Path_141" class="st0" d="M864.1,487.5c-1,4.9-1.9,9.5-2.8,14.3H673.4c0.9-4.8,1.8-9.4,2.8-14.3H864.1z"/>
<path id="Path_142" class="st0" d="M723.8,470.3l2.9-14.7h143.2c-0.9,5-1.8,9.7-2.7,14.7H723.8z"/>
<path id="Path_143" class="st0" d="M875.9,423.9c-0.9,5-1.8,9.8-2.8,14.8H770.9c1-5,1.9-9.9,2.8-14.8H875.9z"/>
<path id="Path_144" class="st1" d="M203.8,713.4h7.6c-0.4,2.3-0.8,4.5-1.3,6.6c-1.7,8.3-3.5,16.6-5.1,25c-0.8,2.8,0.8,5.8,3.6,6.6
	c0.5,0.2,1.1,0.2,1.6,0.2c6,0.2,12.1,0.1,18.5,0.1c2.7-12.8,5.3-25.5,8.1-38.5h7.6c-0.9,4.3-1.7,8.3-2.5,12.3
	c-2.6,12.3-5,24.6-7.7,36.9c-2,8.1-9.2,13.8-17.6,13.9c-7.4,0.1-14.8,0-22.1,0c-0.8,0-1.6-0.1-2.8-0.2c0.5-2.5,1-4.6,1.5-7.1
	c1.2-0.1,2.2-0.2,3.2-0.2c7,0,14,0,21,0c5,0.2,9.3-3.6,9.6-8.7c0-0.2,0-0.5,0-0.7c-1.1-0.1-2.1-0.2-3.2-0.2
	c-5.8-0.1-11.6,0-17.3-0.4c-5.6-0.4-9.8-5.4-9.4-11c0-0.3,0.1-0.5,0.1-0.8C199.1,735.9,201.6,724.8,203.8,713.4"/>
<path id="Path_145" class="st1" d="M145.5,758.9c4.4-21,8.7-41.8,13-62.7h7.5l-3.3,16.9c1.2,0.1,2.2,0.3,3.1,0.3
	c5.1,0.1,10.2-0.1,15.3,0.2c6.1,0.1,11.1,5.1,11,11.2c0,0.8-0.1,1.6-0.3,2.4c-1.1,6.1-2.4,12.2-3.9,18.3
	c-1.7,7.7-8.4,13.4-16.3,13.9c-8.1,0.3-16.2,0.1-24.4,0.1C146.8,759.2,146.1,759.1,145.5,758.9 M154.6,751.7c6.7,0,13,0.4,19.3-0.1
	c3.5-0.5,6.3-3.2,6.8-6.8c1.3-5.5,2.4-11,3.5-16.6c1-2.9-0.6-6-3.5-7c-0.8-0.3-1.6-0.4-2.5-0.2c-3.7-0.1-7.4,0-11.1,0H161
	C158.8,731.5,156.8,741.5,154.6,751.7"/>
<path id="Path_146" class="st2" d="M347.4,775.9c0.4-2.2,0.8-4.2,1.3-6.5h5.2c6.3,0,12.7,0.1,19,0c5.4,0.2,9.9-4.1,10.1-9.5
	c0-0.2,0-0.5,0-0.7c-1-0.1-2-0.2-3-0.2c-5.4,0-10.8,0-16.2,0c-5.8,0.3-10.7-4.1-11.1-9.9c0-0.8,0-1.6,0.1-2.3
	c0.6-5,1.8-9.8,2.7-14.8c1.2-5.8,2.4-11.6,3.7-17.5c0.1-0.5,0.3-1,0.6-1.5h6.9c-1,5-2,9.6-3,14.3c-1.2,5.7-2.4,11.5-3.5,17.2
	c-0.9,3.1,0.8,6.3,3.9,7.2c0.4,0.1,0.8,0.2,1.2,0.2c5.3,0.4,10.6,0.2,15.9,0.2c1,0,2-0.1,3.5-0.2c2.7-13,5.4-26,8.2-39h7
	c-0.4,2.4-0.7,4.7-1.2,6.9c-2.5,12.4-5.2,24.8-7.6,37.2c-0.4,6.5-3.8,12.5-9.2,16.2c-2.6,1.6-5.4,2.6-8.4,2.9
	c-7.9,0.4-15.9,0.1-23.8,0.1C348.9,776.2,348.2,776.1,347.4,775.9"/>
<path id="Path_147" class="st1" d="M470.4,759.4h-7.3c-5.9,0-11.7,0.1-17.6,0c-6.4,0.7-12.2-3.9-12.9-10.3c-0.2-1.9,0.1-3.8,0.8-5.6
	c1.9-8.4,9.5-14.4,18.2-14.2h16.9c2.5-5.1,0.2-9.1-5.1-9.2c-5.7-0.1-11.3,0-17,0c-1,0-2-0.1-3.4-0.2c0.5-2.6,0.9-4.8,1.4-7
	c8.4,0,16.6-0.5,24.6,0.2c5.7,0.8,9.6,6.1,8.8,11.7c-0.1,0.4-0.1,0.8-0.2,1.2C475.2,737,472.8,747.9,470.4,759.4 M467.2,737.2
	c-6.7-0.3-13.4-0.2-20,0.3c-2.1,0.2-4.6,3-5.7,5.3c-2.5,5,0.3,9.1,5.9,9.1c4.5,0,9.1,0,13.6,0c1.1,0,2.2-0.1,3.4-0.2
	C465.3,746.7,466.2,742,467.2,737.2"/>
<path id="Path_148" class="st2" d="M267.3,758.8h-6.9c4.4-21,8.7-41.7,13-62.5c1.2-0.1,2-0.2,2.9-0.2c9.7,0,19.5,0,29.2,0
	c6-0.6,11.4,3.9,12,9.9c0.1,1.4,0,2.8-0.4,4.1c-0.5,2.9-1.1,5.7-1.9,8.5c-2.3,7.3-9,12.2-16.6,12.2c-7.3,0-14.6,0-21.8,0h-3.5
	C271.3,740.2,269.3,749.4,267.3,758.8 M279,702.9c-1.5,7.3-2.9,14.1-4.3,21.1c9.3,0,18.1,0.3,26.8-0.1c3.4-0.4,6.3-2.9,7-6.2
	c0.6-2.1,1-4.2,1.5-6.3c1.2-3.2-0.4-6.8-3.6-8c-1-0.4-2-0.5-3.1-0.3c-5.7-0.1-11.3,0-17,0L279,702.9"/>
<path id="Path_149" class="st2" d="M343.4,729.3c2.2-5.6-0.3-9.4-5.8-9.5c-5.9-0.1-11.9,0-18.3,0l1.3-7c3.2,0,6.2,0,9.2,0
	c3.8,0,7.6-0.1,11.3,0.1c6.1,0.1,11,5.1,10.9,11.2c0,1-0.2,2.1-0.5,3.1c-2.1,9.3-3.9,18.7-5.9,28c-0.3,1.3-0.7,2.5-1.1,4
	c-2.8,0-5.4,0-8.1,0c-6,0-11.9,0.1-17.9-0.1c-6,0.2-11-4.5-11.2-10.5c0-1,0.1-1.9,0.3-2.9c1.1-9.5,9.3-16.5,18.8-16.1
	c4.6,0,9.3,0,13.9,0C341.5,729.5,342.5,729.4,343.4,729.3 M342.1,737c-0.6-0.3-1.2-0.5-1.9-0.6c-5.4-0.3-10.7-0.2-16.1,0.2
	c-2.7,0.5-5.3,1.9-7.1,3.9c-2.7,2.4-3,6.5-0.7,9.2c0.9,1.1,2.2,1.8,3.6,2.1c6.2,0.5,12.6,0.1,19.2,0.1
	C340.1,747,341,742.1,342.1,737"/>
<path id="Path_150" class="st1" d="M476.4,759.5l1.4-7.6h3.7c7.4,0,14.8,0,22.1,0c3.7,0.5,7.1-2,7.7-5.7c1.1-4-0.3-6.3-4.5-6.5
	c-4.2-0.2-8.5,0-12.8-0.1c-1.6,0-3.2-0.2-4.7-0.6c-5.1-0.9-8.4-5.8-7.4-10.8c0-0.1,0.1-0.3,0.1-0.4c0.5-8.6,7.6-15.2,16.2-15.2
	c8.8-0.3,17.5-0.1,26.8-0.1c-0.5,2.5-0.9,4.8-1.3,7.2c-1.3,0.1-2.4,0.3-3.5,0.3c-7.4,0-14.8,0-22.1,0c-5.3,0-7.6,2-8.3,6.9
	c-0.4,2.9,0.7,4.6,3.7,4.9c3.2,0.3,6.4,0.3,9.6,0.4c0.7,0,1.3,0,2,0c8.8,0,13.6,2.4,14.4,8c1.2,7.6-3,15-10.2,17.8
	c-2,0.8-4.1,1.3-6.3,1.4C494.2,759.6,485.7,759.5,476.4,759.5"/>
<path id="Path_151" class="st1" d="M209.6,509c8.3-0.6,15.6,5.6,16.2,13.9c0.1,0.7,0.1,1.4,0,2.1c0.2,9.8-7.6,18-17.5,18.2
	c-0.5,0-1,0-1.5,0c-8.2,0.6-15.3-5.5-15.9-13.7c0-0.6-0.1-1.1,0-1.7c-0.4-10,7.3-18.4,17.3-18.8C208.7,509,209.2,509,209.6,509"/>
<path id="Path_152" class="st1" d="M407.8,759.2h-7.5c0.9-4.5,1.6-8.7,2.5-12.9c2.5-12.1,5-24.2,7.6-36.3c1.7-8.6,9.2-14.8,18-14.8
	c9.3-0.1,18.5,0,27.8,0c0.9,0,1.8,0.1,3,0.2c-0.6,2.6-1.1,4.9-1.6,7.5h-3.2c-9,0-18,0-26.9,0c-4.4-0.3-8.4,2.8-9.3,7.1
	c-1.1,4.4-1.9,8.8-2.9,13.7h18.9c-0.5,2.7-0.9,4.8-1.4,7.5h-18.9C411.7,740.8,409.8,750,407.8,759.2"/>
<path id="Path_153" class="st1" d="M553.8,752.4c-0.4,2.1-0.8,4.2-1.3,6.4c-5.3,0.3-10.6,0.3-15.9-0.2c-5.8-1.2-9.5-6.8-8.3-12.5
	c0-0.2,0.1-0.5,0.2-0.7c1.4-7.4,3-14.8,4.6-22.2c0.2-1,0.4-2,0.6-3.3l-4.4-0.6l1.6-7.2l4.5-0.4c1.2-5.4,2.3-10.8,3.5-16.3h7.6
	c-1.1,5.4-2.1,10.6-3.3,16.4h15.4c-0.6,2.9-1.1,5.3-1.7,7.8h-15.4c-1.3,6-2.5,11.8-3.7,17.5c-0.5,2.3-0.9,4.6-1.4,6.9
	c-1,3,0.6,6.3,3.6,7.4c0.7,0.2,1.5,0.4,2.2,0.3c3.5,0.2,7,0.1,10.5,0.2C553.1,752,553.4,752.2,553.8,752.4"/>
</svg>
